<svg version="1.1" viewBox="0.0 0.0 960.0 540.0" fill="none" stroke="none" stroke-linecap="square" stroke-miterlimit="10" xmlns:xlink="http://www.w3.org/1999/xlink" xmlns="http://www.w3.org/2000/svg"><clipPath id="g34a49a045da_0_0.0"><path d="m0 0l960.0 0l0 540.0l-960.0 0l0 -540.0z" clip-rule="nonzero"/></clipPath><g clip-path="url(#g34a49a045da_0_0.0)"><path fill="#9e9e9e" d="m0 0l960.0 0l0 540.0l-960.0 0z" fill-rule="evenodd"/><path fill="#000000" fill-opacity="0.0" d="m47.7769 158.77165l864.3779 0l0 222.45668l-864.3779 0z" fill-rule="evenodd"/><path fill="#ffffff" d="m258.52032 164.19391q3.078125 0 5.0 2.046875q1.921875 2.046875 1.921875 5.109375l0 74.625q0 3.328125 -2.25 5.578125q-2.234375 2.234375 -5.5625 2.234375q-1.6562653 0 -3.3906403 -0.578125q-1.734375 -0.578125 -2.625 -1.59375l-50.296875 -63.875l3.328125 -2.046875l0 60.921875q0 3.078125 -1.984375 5.125q-1.984375 2.046875 -5.1875 2.046875q-3.078125 0 -5.0 -2.046875q-1.921875 -2.046875 -1.921875 -5.125l0 -74.625q0 -3.328125 2.234375 -5.5625q2.25 -2.234375 5.578125 -2.234375q1.796875 0 3.71875 0.703125q1.921875 0.703125 2.8125 2.109375l48.765625 62.203125l-2.171875 1.53125l0 -59.390625q0 -3.0625 1.921875 -5.109375q1.921875 -2.046875 5.1093903 -2.046875zm91.26752 55.421875q0 10.484375 -4.671875 18.484375q-4.671875 8.0 -12.546875 12.484375q-7.875 4.484375 -17.59375 4.484375q-9.734375 0 -17.609375 -4.484375q-7.859375 -4.484375 -12.53125 -12.484375q-4.671875 -8.0 -4.671875 -18.484375q0 -10.5 4.671875 -18.5q4.671875 -8.0 12.53125 -12.546875q7.875 -4.546875 17.609375 -4.546875q9.71875 0 17.59375 4.546875q7.875 4.546875 12.546875 12.546875q4.671875 8.0 4.671875 18.5zm-15.359375 0q0 -6.53125 -2.625 -11.328125q-2.625 -4.796875 -7.046875 -7.484375q-4.40625 -2.703125 -9.78125 -2.703125q-5.375 0 -9.796875 2.703125q-4.40625 2.6875 -7.03125 7.484375q-2.625 4.796875 -2.625 11.328125q0 6.390625 2.625 11.203125q2.625 4.796875 7.03125 7.484375q4.421875 2.6875 9.796875 2.6875q5.375 0 9.78125 -2.6875q4.421875 -2.6875 7.046875 -7.484375q2.625 -4.8125 2.625 -11.203125zm81.91516 26.359375q0 3.328125 -2.4375 5.578125q-2.421875 2.234375 -5.625 2.234375q-3.578125 0 -5.765625 -2.234375q-2.171875 -2.25 -2.171875 -5.578125l0 -73.984375q0 -3.328125 2.296875 -5.5625q2.3125 -2.234375 5.90625 -2.234375q3.0625 0 5.421875 2.234375q2.375 2.234375 2.375 5.5625l0 73.984375zm53.887512 -61.953125q10.25 0 15.109375 4.9375q4.859375 4.921875 6.40625 12.734375l-2.1875 -1.15625l1.03125 -2.046875q1.53125 -2.9375 4.734375 -6.328125q3.203125 -3.40625 7.734375 -5.765625q4.546875 -2.375 10.1875 -2.375q9.21875 0 14.015625 3.96875q4.796875 3.96875 6.59375 10.5625q1.796875 6.59375 1.796875 14.65625l0 32.765625q0 3.328125 -2.1875 5.578125q-2.171875 2.234375 -5.5 2.234375q-3.328125 0 -5.5 -2.234375q-2.171875 -2.25 -2.171875 -5.578125l0 -32.765625q0 -4.21875 -1.03125 -7.609375q-1.03125 -3.390625 -3.71875 -5.4375q-2.6875 -2.0625 -7.671875 -2.0625q-4.859375 0 -8.328125 2.0625q-3.453125 2.046875 -5.1875 5.4375q-1.71875 3.390625 -1.71875 7.609375l0 32.765625q0 3.328125 -2.171875 5.578125q-2.171875 2.234375 -5.5 2.234375q-3.328125 0 -5.515625 -2.234375q-2.171875 -2.25 -2.171875 -5.578125l0 -32.765625q0 -4.21875 -1.03125 -7.609375q-1.015625 -3.390625 -3.703125 -5.4375q-2.6875 -2.0625 -7.6875 -2.0625q-4.859375 0 -8.3125 2.0625q-3.453125 2.046875 -5.1875 5.4375q-1.71875 3.390625 -1.71875 7.609375l0 32.765625q0 3.328125 -2.1875 5.578125q-2.171875 2.234375 -5.5 2.234375q-3.328125 0 -5.515625 -2.234375q-2.171875 -2.25 -2.171875 -5.578125l0 -52.859375q0 -3.328125 2.171875 -5.5625q2.1875 -2.25 5.515625 -2.25q3.328125 0 5.5 2.25q2.1875 2.234375 2.1875 5.5625l0 5.5l-1.921875 -0.375q1.140625 -2.1875 3.1875 -4.671875q2.0625 -2.5 5.0 -4.671875q2.9375 -2.1875 6.515625 -3.53125q3.59375 -1.34375 7.8125 -1.34375zm138.12537 0q3.328125 0 5.5 2.1875q2.171875 2.171875 2.171875 5.625l0 54.140625q0 3.328125 -2.171875 5.578125q-2.171875 2.234375 -5.5 2.234375q-3.328125 0 -5.515625 -2.234375q-2.171875 -2.25 -2.171875 -5.578125l0 -6.265625l2.8125 1.15625q0 1.65625 -1.796875 4.03125q-1.78125 2.359375 -4.859375 4.671875q-3.0625 2.296875 -7.234375 3.90625q-4.15625 1.59375 -9.015625 1.59375q-8.828125 0 -16.0 -4.546875q-7.171875 -4.546875 -11.328125 -12.546875q-4.15625 -8.0 -4.15625 -18.359375q0 -10.5 4.15625 -18.5q4.15625 -8.0 11.1875 -12.546875q7.046875 -4.546875 15.625 -4.546875q5.5 0 10.109375 1.671875q4.609375 1.65625 8.0 4.21875q3.390625 2.5625 5.25 5.1875q1.859375 2.625 1.859375 4.421875l-4.609375 1.65625l0 -9.34375q0 -3.328125 2.171875 -5.5625q2.1875 -2.25 5.515625 -2.25zm-25.859375 56.96875q5.625 0 9.84375 -2.8125q4.234375 -2.828125 6.59375 -7.6875q2.375 -4.859375 2.375 -10.875q0 -6.140625 -2.375 -11.0q-2.359375 -4.875 -6.59375 -7.6875q-4.21875 -2.828125 -9.84375 -2.828125q-5.5 0 -9.734375 2.828125q-4.21875 2.8125 -6.59375 7.6875q-2.359375 4.859375 -2.359375 11.0q0 6.015625 2.359375 10.875q2.375 4.859375 6.59375 7.6875q4.234375 2.8125 9.734375 2.8125zm78.58716 -56.96875q5.375 0 9.859375 1.671875q4.484375 1.65625 7.734375 4.21875q3.265625 2.5625 5.125 5.1875q1.859375 2.625 1.859375 4.421875l-3.328125 1.65625l0 -9.34375q0 -3.328125 2.171875 -5.5625q2.1875 -2.25 5.5 -2.25q3.328125 0 5.5 2.1875q2.1875 2.171875 2.1875 5.625l0 56.96875q0 11.125 -4.796875 17.84375q-4.796875 6.71875 -12.609375 9.71875q-7.8125 3.015625 -16.765625 3.015625q-2.5625 0 -6.65625 -0.640625q-4.09375 -0.640625 -7.8125 -1.53125q-3.71875 -0.890625 -5.625 -1.65625q-3.84375 -1.671875 -5.328125 -4.171875q-1.46875 -2.484375 -0.5625 -5.3125q1.15625 -3.703125 3.703125 -5.046875q2.5625 -1.34375 5.375 -0.328125q1.28125 0.390625 4.21875 1.53125q2.953125 1.15625 6.46875 2.109375q3.53125 0.96875 6.21875 0.96875q9.59375 0 14.203125 -3.84375q4.609375 -3.828125 4.609375 -10.609375l0 -11.140625l1.53125 1.15625q0 1.65625 -1.734375 4.03125q-1.71875 2.359375 -4.734375 4.671875q-3.0 2.296875 -7.09375 3.90625q-4.09375 1.59375 -8.703125 1.59375q-9.09375 0 -16.390625 -4.546875q-7.296875 -4.546875 -11.515625 -12.546875q-4.21875 -8.0 -4.21875 -18.359375q0 -10.5 4.21875 -18.5q4.21875 -8.0 11.390625 -12.546875q7.171875 -4.546875 16.0 -4.546875zm2.4375 14.078125q-5.765625 0 -10.125 2.828125q-4.34375 2.8125 -6.78125 7.6875q-2.421875 4.859375 -2.421875 11.0q0 6.015625 2.421875 10.875q2.4375 4.859375 6.78125 7.6875q4.359375 2.8125 10.125 2.8125q5.890625 0 10.234375 -2.8125q4.359375 -2.828125 6.78125 -7.6875q2.4375 -4.859375 2.4375 -10.875q0 -6.140625 -2.4375 -11.0q-2.421875 -4.875 -6.78125 -7.6875q-4.34375 -2.828125 -10.234375 -2.828125zm80.510254 56.96875q-10.875 0 -18.875 -4.546875q-8.0 -4.546875 -12.296875 -12.34375q-4.28125 -7.8125 -4.28125 -17.671875q0 -11.515625 4.671875 -19.640625q4.671875 -8.140625 12.21875 -12.484375q7.546875 -4.359375 16.0 -4.359375q6.53125 0 12.34375 2.6875q5.828125 2.6875 10.3125 7.359375q4.484375 4.671875 7.109375 10.828125q2.625 6.140625 2.625 13.046875q-0.140625 3.078125 -2.453125 5.0q-2.296875 1.921875 -5.359375 1.921875l-48.890625 0l-3.84375 -12.8125l46.96875 0l-2.8125 2.5625l0 -3.453125q-0.25 -3.71875 -2.625 -6.65625q-2.359375 -2.9375 -5.890625 -4.671875q-3.515625 -1.734375 -7.484375 -1.734375q-3.84375 0 -7.171875 1.03125q-3.328125 1.03125 -5.765625 3.46875q-2.421875 2.421875 -3.828125 6.515625q-1.40625 4.09375 -1.40625 10.375q0 6.90625 2.875 11.703125q2.875 4.796875 7.421875 7.296875q4.546875 2.5 9.671875 2.5q4.734375 0 7.546875 -0.765625q2.8125 -0.78125 4.53125 -1.859375q1.734375 -1.09375 3.15625 -1.859375q2.296875 -1.15625 4.34375 -1.15625q2.8125 0 4.671875 1.921875q1.859375 1.921875 1.859375 4.484375q0 3.453125 -3.578125 6.265625q-3.328125 2.828125 -9.359375 4.9375q-6.015625 2.109375 -12.40625 2.109375z" fill-rule="nonzero"/><path fill="#ffffff" d="m240.16179 291.80765l-27.65625 65.015625q-0.890625 2.4375 -2.75 3.78125q-1.859375 1.34375 -4.03125 1.34375q-3.453125 0 -5.125 -1.921875q-1.65625 -1.921875 -1.65625 -4.734375q0 -1.15625 0.375 -2.4375l31.875 -76.53125q1.03125 -2.5625 3.140625 -3.96875q2.109375 -1.421875 4.546875 -1.15625q2.296875 0 4.28125 1.34375q1.984375 1.34375 2.890625 3.78125l31.48439 75.0q0.640625 1.671875 0.640625 3.078125q0 3.453125 -2.25 5.5q-2.234375 2.046875 -4.921875 2.046875q-2.296875 0 -4.15625 -1.40625q-1.859375 -1.40625 -2.890625 -3.84375l-27.51564 -64.125l3.71875 -0.765625zm-23.6875 49.40625l7.046875 -14.71875l34.562515 0l2.421875 14.71875l-44.031265 0zm70.78615 -48.390625q2.4375 0 4.484375 1.21875q2.046875 1.21875 3.0625 3.65625l18.828125 43.0l-2.828125 1.28125l19.203125 -44.15625q2.171875 -5.125 6.78125 -4.875q3.203125 0 5.1875 1.984375q1.984375 1.984375 1.984375 4.9375q0 0.890625 -0.328125 1.921875q-0.3125 1.015625 -0.6875 1.921875l-23.9375 52.734375q-2.046875 4.609375 -6.53125 4.859375q-2.4375 0.390625 -4.671875 -0.890625q-2.234375 -1.28125 -3.390625 -3.96875l-23.8125 -52.734375q-0.25 -0.640625 -0.578125 -1.65625q-0.3125 -1.03125 -0.3125 -2.453125q0 -2.296875 2.046875 -4.53125q2.046875 -2.25 5.5 -2.25zm124.67999 -1.28125q3.328125 0 5.5 2.1875q2.171875 2.171875 2.171875 5.625l0 54.140625q0 3.328125 -2.171875 5.578125q-2.171875 2.234375 -5.5 2.234375q-3.328125 0 -5.515625 -2.234375q-2.171875 -2.25 -2.171875 -5.578125l0 -6.265625l2.8125 1.15625q0 1.65625 -1.796875 4.03125q-1.78125 2.359375 -4.859375 4.671875q-3.0625 2.296875 -7.234375 3.90625q-4.15625 1.59375 -9.015625 1.59375q-8.828125 0 -16.0 -4.546875q-7.171875 -4.546875 -11.328125 -12.546875q-4.15625 -8.0 -4.15625 -18.359375q0 -10.5 4.15625 -18.5q4.15625 -8.0 11.1875 -12.546875q7.046875 -4.546875 15.625 -4.546875q5.5 0 10.109375 1.671875q4.609375 1.65625 8.0 4.21875q3.390625 2.5625 5.25 5.1875q1.859375 2.625 1.859375 4.421875l-4.609375 1.65625l0 -9.34375q0 -3.328125 2.171875 -5.5625q2.1875 -2.25 5.515625 -2.25zm-25.859375 56.96875q5.625 0 9.84375 -2.8125q4.234375 -2.828125 6.59375 -7.6875q2.375 -4.859375 2.375 -10.875q0 -6.140625 -2.375 -11.0q-2.359375 -4.875 -6.59375 -7.6875q-4.21875 -2.828125 -9.84375 -2.828125q-5.5 0 -9.734375 2.828125q-4.21875 2.8125 -6.59375 7.6875q-2.359375 4.859375 -2.359375 11.0q0 6.015625 2.359375 10.875q2.375 4.859375 6.59375 7.6875q4.234375 2.8125 9.734375 2.8125zm64.63403 4.984375q0 3.328125 -2.171875 5.578125q-2.171875 2.234375 -5.5 2.234375q-3.328125 0 -5.515625 -2.234375q-2.171875 -2.25 -2.171875 -5.578125l0 -52.859375q0 -3.328125 2.171875 -5.5625q2.1875 -2.25 5.515625 -2.25q3.328125 0 5.5 2.25q2.171875 2.234375 2.171875 5.5625l0 52.859375zm-7.796875 -68.984375q-4.359375 0 -6.15625 -1.40625q-1.78125 -1.40625 -1.78125 -5.0l0 -2.421875q0 -3.71875 1.984375 -5.0625q1.984375 -1.34375 6.078125 -1.34375q4.46875 0 6.265625 1.40625q1.796875 1.40625 1.796875 5.0l0 2.421875q0 3.71875 -1.921875 5.0625q-1.921875 1.34375 -6.265625 1.34375zm40.176758 68.984375q0 3.328125 -2.234375 5.578125q-2.234375 2.234375 -5.5625 2.234375q-3.203125 0 -5.390625 -2.234375q-2.171875 -2.25 -2.171875 -5.578125l0 -79.09375q0 -3.328125 2.234375 -5.5625q2.25 -2.25 5.578125 -2.25q3.328125 0 5.4375 2.25q2.109375 2.234375 2.109375 5.5625l0 79.09375zm73.9975 -61.953125q3.328125 0 5.5 2.1875q2.171875 2.171875 2.171875 5.625l0 54.140625q0 3.328125 -2.171875 5.578125q-2.171875 2.234375 -5.5 2.234375q-3.328125 0 -5.515625 -2.234375q-2.171875 -2.25 -2.171875 -5.578125l0 -6.265625l2.8125 1.15625q0 1.65625 -1.796875 4.03125q-1.78125 2.359375 -4.859375 4.671875q-3.0625 2.296875 -7.234375 3.90625q-4.15625 1.59375 -9.015625 1.59375q-8.828125 0 -16.0 -4.546875q-7.171875 -4.546875 -11.328125 -12.546875q-4.15625 -8.0 -4.15625 -18.359375q0 -10.5 4.15625 -18.5q4.15625 -8.0 11.1875 -12.546875q7.046875 -4.546875 15.625 -4.546875q5.5 0 10.109375 1.671875q4.609375 1.65625 8.0 4.21875q3.390625 2.5625 5.25 5.1875q1.859375 2.625 1.859375 4.421875l-4.609375 1.65625l0 -9.34375q0 -3.328125 2.171875 -5.5625q2.1875 -2.25 5.515625 -2.25zm-25.859375 56.96875q5.625 0 9.84375 -2.8125q4.234375 -2.828125 6.59375 -7.6875q2.375 -4.859375 2.375 -10.875q0 -6.140625 -2.375 -11.0q-2.359375 -4.875 -6.59375 -7.6875q-4.21875 -2.828125 -9.84375 -2.828125q-5.5 0 -9.734375 2.828125q-4.21875 2.8125 -6.59375 7.6875q-2.359375 4.859375 -2.359375 11.0q0 6.015625 2.359375 10.875q2.375 4.859375 6.59375 7.6875q4.234375 2.8125 9.734375 2.8125zm85.63403 -56.96875q8.953125 0 16.046875 4.546875q7.109375 4.546875 11.265625 12.484375q4.171875 7.9375 4.171875 18.4375q0 10.484375 -4.171875 18.484375q-4.15625 8.0 -11.140625 12.546875q-6.96875 4.546875 -15.671875 4.546875q-5.109375 0 -9.59375 -1.65625q-4.484375 -1.671875 -7.875 -4.234375q-3.390625 -2.5625 -5.25 -5.1875q-1.84375 -2.625 -1.84375 -4.40625l3.96875 -1.671875l0 9.34375q0 3.328125 -2.1875 5.578125q-2.171875 2.234375 -5.5 2.234375q-3.328125 0 -5.515625 -2.171875q-2.171875 -2.1875 -2.171875 -5.640625l0 -80.375q0 -3.328125 2.171875 -5.5625q2.1875 -2.25 5.515625 -2.25q3.328125 0 5.5 2.25q2.1875 2.234375 2.1875 5.5625l0 32.5l-2.1875 -1.140625q0 -1.671875 1.796875 -4.03125q1.796875 -2.375 4.859375 -4.734375q3.078125 -2.375 7.109375 -3.90625q4.03125 -1.546875 8.515625 -1.546875zm-1.921875 14.078125q-5.640625 0 -9.859375 2.828125q-4.21875 2.8125 -6.59375 7.609375q-2.359375 4.796875 -2.359375 10.953125q0 6.015625 2.359375 10.9375q2.375 4.921875 6.59375 7.75q4.21875 2.8125 9.859375 2.8125q5.625 0 9.78125 -2.8125q4.171875 -2.828125 6.53125 -7.75q2.375 -4.921875 2.375 -10.9375q0 -6.15625 -2.375 -10.953125q-2.359375 -4.796875 -6.53125 -7.609375q-4.15625 -2.828125 -9.78125 -2.828125zm63.477783 47.875q0 3.328125 -2.234375 5.578125q-2.234375 2.234375 -5.5625 2.234375q-3.203125 0 -5.390625 -2.234375q-2.171875 -2.25 -2.171875 -5.578125l0 -79.09375q0 -3.328125 2.234375 -5.5625q2.25 -2.25 5.578125 -2.25q3.328125 0 5.4375 2.25q2.109375 2.234375 2.109375 5.5625l0 79.09375zm48.90503 9.09375q-10.875 0 -18.875 -4.546875q-8.0 -4.546875 -12.296875 -12.34375q-4.28125 -7.8125 -4.28125 -17.671875q0 -11.515625 4.671875 -19.640625q4.671875 -8.140625 12.21875 -12.484375q7.546875 -4.359375 16.0 -4.359375q6.53125 0 12.34375 2.6875q5.828125 2.6875 10.3125 7.359375q4.484375 4.671875 7.109375 10.828125q2.625 6.140625 2.625 13.046875q-0.140625 3.078125 -2.453125 5.0q-2.296875 1.921875 -5.359375 1.921875l-48.890625 0l-3.84375 -12.8125l46.96875 0l-2.8125 2.5625l0 -3.453125q-0.25 -3.71875 -2.625 -6.65625q-2.359375 -2.9375 -5.890625 -4.671875q-3.515625 -1.734375 -7.484375 -1.734375q-3.84375 0 -7.171875 1.03125q-3.328125 1.03125 -5.765625 3.46875q-2.421875 2.421875 -3.828125 6.515625q-1.40625 4.09375 -1.40625 10.375q0 6.90625 2.875 11.703125q2.875 4.796875 7.421875 7.296875q4.546875 2.5 9.671875 2.5q4.734375 0 7.546875 -0.765625q2.8125 -0.78125 4.53125 -1.859375q1.734375 -1.09375 3.15625 -1.859375q2.296875 -1.15625 4.34375 -1.15625q2.8125 0 4.671875 1.921875q1.859375 1.921875 1.859375 4.484375q0 3.453125 -3.578125 6.265625q-3.328125 2.828125 -9.359375 4.9375q-6.015625 2.109375 -12.40625 2.109375z" fill-rule="nonzero"/></g></svg>